<svg width="1041" height="555" viewBox="0 0 1041 555" fill="none" xmlns="http://www.w3.org/2000/svg">
<rect x="93.2002" y="201.598" width="182.065" height="210.625" transform="rotate(30 93.2002 201.598)" fill="#C156FC"/>
<rect x="-17.9771" y="394.162" width="307.012" height="188.185" transform="rotate(30 -17.9771 394.162)" fill="#A911FB"/>
<rect x="262.356" y="299.26" width="111.687" height="210.625" transform="rotate(30 262.356 299.26)" fill="#C156FC"/>
<rect x="504.048" y="543.622" width="84.1478" height="154.526" transform="rotate(30 504.048 543.622)" fill="#8404C8"/>
<rect x="173.268" y="62.9161" width="379.43" height="148.406" transform="rotate(30 173.268 62.9161)" fill="#D893FD"/>
<rect x="513.347" y="259.261" width="120.867" height="148.406" transform="rotate(30 513.347 259.261)" fill="#D893FD"/>
<rect x="370.564" y="361.734" width="193.285" height="288.652" transform="rotate(30 370.564 361.734)" fill="#A911FB"/>
<rect x="629.504" y="326.324" width="193.285" height="239.184" transform="rotate(30 629.504 326.324)" fill="#A911FB"/>
<rect x="808.377" y="429.597" width="268.253" height="181.045" transform="rotate(30 808.377 429.597)" fill="#A911FB"/>
<rect x="-84.6624" y="-86" width="284.573" height="570.675" transform="rotate(30 -84.6624 -86)" fill="#D893FD"/>
</svg>
