<svg width="1125" height="555" viewBox="0 0 1125 555" fill="none" xmlns="http://www.w3.org/2000/svg">
<rect x="352.023" y="-82.8378" width="307.012" height="188.185" transform="rotate(30 352.023 -82.8378)" fill="#A911FB"/>
<rect x="632.357" y="-177.74" width="111.687" height="210.625" transform="rotate(30 632.357 -177.74)" fill="#C156FC"/>
<rect x="874.048" y="66.6218" width="84.1478" height="154.526" transform="rotate(30 874.048 66.6218)" fill="#8404C8"/>
<rect x="957.08" y="114.56" width="97.4075" height="154.526" transform="rotate(30 957.08 114.56)" fill="#C156FC"/>
<rect x="1081.99" y="119.545" width="200.425" height="131.577" transform="rotate(30 1081.99 119.545)" fill="#8404C8"/>
<rect x="1010.34" y="243.652" width="268.253" height="69.3582" transform="rotate(30 1010.34 243.652)" fill="#C156FC"/>
<rect x="740.564" y="-115.266" width="193.285" height="288.652" transform="rotate(30 740.564 -115.266)" fill="#A911FB"/>
<rect x="999.504" y="-150.676" width="193.285" height="239.184" transform="rotate(30 999.504 -150.676)" fill="#A911FB"/>
<rect x="1178.38" y="-47.4033" width="268.253" height="181.045" transform="rotate(30 1178.38 -47.4033)" fill="#A911FB"/>
<rect width="193.285" height="110.157" transform="matrix(0.866025 0.5 0.5 -0.866025 535.294 240.271)" fill="#8404C8"/>
<rect width="288.652" height="153.506" transform="matrix(0.866025 0.5 0.5 -0.866025 714.167 343.544)" fill="#D893FD"/>
<rect width="174.415" height="153.506" transform="matrix(0.866025 0.5 0.5 -0.866025 974.306 493.735)" fill="#D893FD"/>
<rect x="285.338" y="-563" width="284.573" height="570.675" transform="rotate(30 285.338 -563)" fill="#D893FD"/>
</svg>
